<svg xmlns="http://www.w3.org/2000/svg" viewBox="0 0 94.33 91.23"><defs><style>.cls-1{fill:#d52a28;}</style></defs><title>ghost</title><g id="レイヤー_2" data-name="レイヤー 2"><g id="レイヤー_1-2" data-name="レイヤー 1"><path class="cls-1" d="M41.73,9.84A9.74,9.74,0,1,1,32.09,0,9.75,9.75,0,0,1,41.73,9.84Z"/><path class="cls-1" d="M64.83,80.36l25.45-3.6a4.45,4.45,0,1,0-.79-8.86l-22.32-.69L53.43,31.43,62.67,29,75,38.19a3.79,3.79,0,0,0,4.76-5.9L67.6,21a6.64,6.64,0,0,0-4.77-2.3C37.75,22,17.07,24.5,17.07,24.5l-10.19-13A3.79,3.79,0,0,0,.7,15.85L11.34,32.26c1.18,1.66,3.7,2,5.57,1.86l12.59-.66c2.37,4.55,6.48,15.47,6.75,16s.11.84-.26,1L20.87,56.94a8.15,8.15,0,0,0-4.57,3.84L8,85.08a4.45,4.45,0,1,0,8.22,3.4l9.9-20.16,21-6a1.48,1.48,0,0,1,1.49.37c.16.22,7.92,13.7,7.92,13.7A8.72,8.72,0,0,0,64.83,80.36Z"/></g></g></svg>