<svg enable-background="new 0 0 1000 1000" height="1000" viewBox="0 0 1000 1000" width="1000" xmlns="http://www.w3.org/2000/svg"><ellipse cx="480.75" cy="777.245" fill="#e5e5e5" rx="392.933" ry="27.125"/><ellipse cx="498.317" cy="845.893" fill="#e5e5e5" rx="476.226" ry="62.103"/><path d="m846.5 603s38.5-2.82 38 43.44c-.45 41.239-30.69 43.479-37.25 43.479-.8 0-1.25-.03-1.25-.03h-293.5v-14.56h7.52 285.48s20.73-4.22 21.5-27.24c1-30.06-23.5-30.06-23.5-30.06h-283.48-7.52v-4.029-11h196z" fill="#3e89fc"/><path d="m882.88 771.67c.55 0 1 .45 1 1s-.45 1-1 1v-1z"/><path d="m882.88 782c.55 0 1 .45 1 1s-.45 1-1 1v-1z"/><path d="m882.88 793.67c.55 0 1 .45 1 1s-.45 1-1 1v-1z"/><path d="m882.88 795.67v14.45h-317.72s-23.08-3.88-23.93-25.03c-1.11-27.63 26.149-27.63 26.149-27.63h315.5v14.21h-319.549c-.55 0-1 .45-1 1s.45 1 1 1h319.55v8.33h-300.55c-.55 0-1 .45-1 1s.45 1 1 1h300.55v9.67h-252.55c-.55 0-1 .45-1 1s.45 1 1 1z" fill="#e5e5e5"/><path d="m882.88 794.67v1h-252.55c-.55 0-1-.45-1-1s.45-1 1-1h252.55z"/><path d="m882.88 783v1h-300.55c-.55 0-1-.45-1-1s.45-1 1-1h300.55z"/><path d="m882.88 773.67h-319.55c-.55 0-1-.45-1-1s.45-1 1-1h319.55v1z"/><path d="m843.5 618.03s24.5 0 23.5 30.06c-.77 23.021-21.5 27.24-21.5 27.24h-285.48v-14h272.31c.55 0 1-.45 1-1s-.45-1-1-1h-272.31v-11.89h241.98c.55 0 1-.45 1-1 0-.551-.45-1-1-1h-241.98v-12.77h250.98c.55 0 1-.45 1-1s-.45-1-1-1h-250.98v-12.64z" fill="#e5e5e5"/><path d="m850.5 689.92s9 27.21 0 52.57l-89.5.52v-53.09h86.25z" fill="#a9d9ff"/><path d="m832.33 659.33c.55 0 1 .45 1 1s-.45 1-1 1h-272.31v-1-1z"/><path d="m811 630.67c.55 0 1 .45 1 1s-.45 1-1 1h-250.98v-1-1z"/><path d="m802 645.44c.55 0 1 .449 1 1 0 .55-.45 1-1 1h-241.98v-1-1z"/><path d="m761 689.92v53.09l-111.34.64h-33.99v-.03-53.7z" fill="#fff"/><path d="m748.5 602.96v.04h-196v11h-34v-144h230zm-54.5-54.63v-30.33h-40.67v30.33zm-87 17.78v-58.78h-67.5v58.78z" fill="#a9d9ff"/><path d="m653.33 518h40.67v30.33h-40.67z" fill="#fff"/><path d="m615.67 743.62v.03h-51.63s-3.71-.221-8.93.55l-30.11.17s-9-26.3 0-54.45h90.67z" fill="#a9d9ff"/><path d="m539.5 507.33h67.5v58.78h-67.5z" fill="#fff"/><path d="m560.02 660.33v1c-.55 0-1-.45-1-1s.45-1 1-1z"/><path d="m560.02 646.44v1c-.55 0-1-.45-1-1 0-.551.45-1 1-1z"/><path d="m560.02 631.67v1c-.55 0-1-.45-1-1s.45-1 1-1z"/><path d="m541.23 785.09c.85 21.15 23.93 25.03 23.93 25.03h317.72 8.37v13.38h-326.65s-42.29 2.59-42.85-39.92c-.39-30.01 20.84-37.55 33.36-39.38l94.55-.55h111.34 130.25v13.81h-8.37-315.5s-27.26 0-26.15 27.63z" fill="#295fc5"/><path d="m373.3 418v127.67h-204.3v-127.67zm-38.34 61v-27.61h-48.63v27.61zm-81.96 13.33v-26.66h-20.67v-19.67h-42v24h21v22.33z" fill="#e5e5e5"/><path d="m286.33 451.39h48.63v27.61h-48.63z" fill="#fff"/><path d="m271.15 706.33-8.82 66.34h-93.33l-8.67-66.34h19.58c.11.24.17.38.17.39.16.38.53.61.92.61.13 0 .26-.03.39-.08.38-.16.61-.53.61-.92h28.33v.03c.01.54.46.97 1 .97h.03c.54-.01.96-.45.97-1h23v.01c.01.55.45.99 1 .99h.01c.55-.01 1-.46.99-1z" fill="#a9d9ff"/><path d="m253 465.67v26.66h-41.67v-22.33h21v-4.33z" fill="#a9d9ff"/><path d="m248.83 662.95c-.12.22-.24.43-.36.649-.19-.359-.36-.729-.52-1.13-.1-.26-.19-.529-.28-.8l-.32-.02c0-.051.01-.101.01-.16 7.72-13.76 18.67-24.101 32.54-30.721.5-.239 1.09-.029 1.33.471s.03 1.09-.47 1.33c-13.66 6.521-24.4 16.751-31.93 30.381z"/><path d="m247.36 661.49c.16-4.021-2.34-8.73-2.7-12.811-.53-5.979-.33-14.029 1.91-19.609 3.94-9.801 14.28-18.63 25.08-18.74 3.42-.03 7.74.79 11.02.02 5.35-1.26 5.98-6.069 7.39-10.279 3.34-10.021 19.63-10.16 24.96-1.99 3.73 5.72 5.67 13.59 3.91 20.34-1.58 6.061-7.62 15.061-12.84 18.58-6.75 4.55-15.54 2.63-22.02 7.98-2.96 2.439-4.72 7.6-4.08 11.42.77 4.52 4.3 7.729 4.68 12.59.78 10.229-11.39 11.17-19.08 9.25-4.57-1.141-7-4.23-10.25-7.25-2.82-2.62-5.33-4.42-6.87-7.391.12-.22.24-.43.36-.649 7.53-13.63 18.27-23.86 31.93-30.38.5-.24.71-.83.47-1.33s-.83-.71-1.33-.471c-13.87 6.62-24.82 16.96-32.54 30.72z" fill="#a9d9ff"/><path d="m235.33 706.33c0-.4-.1-22.91 11.74-44.34.09-.17.19-.34.29-.5 0 .06-.01.109-.01.16l.32.02c.09.271.18.54.28.8.16.4.33.771.52 1.13-11.27 20.851-11.14 42.5-11.14 42.721v.01h-1-1z"/><path d="m236.33 706.33h1c.01.54-.44.99-.99 1h-.01c-.55 0-.99-.44-1-.99 0 0 0 0 0-.01z"/><path d="m231.01 634.26c6.53 4.73 7.31 14.23 3.08 21.07-4.67 7.55-16.31 16.86-25.83 14.08-.01-.101-.03-.2-.05-.3-4.82-27.4-15.45-63.511-38.63-79.931-.45-.31-1.08-.21-1.4.24s-.21 1.08.24 1.4c22.56 15.97 33 51.39 37.79 78.39-11.97-.76-24.75-3.9-35.88-7.96-7.1-2.59-16.07-8.33-15.34-16.99.41-4.859 4.03-7.91 7.68-10.59 2.81-2.07 5.8-4.4 4.67-8.42-1.15-4.09-6.16-4.41-9.69-5.91-5.01-2.13-10.17-4.8-13.58-9.08-8.75-11.01-7.59-24.729 3.93-33.01 10.17-7.3 22.5-8.27 34-3.94 10.58 4 24.03 13.341 24 25.431-.02 9.18-4 16.33 3.74 23.59 6.21 5.82 14.51 7.03 21.27 11.93z" fill="#3e89fc"/><path d="m232.33 465.67v4.33h-21-21v-24h42z" fill="#fff"/><path d="m211.33 706.33h1c-.01.55-.43.99-.97 1-.01 0-.02 0-.03 0-.54 0-.99-.43-1-.97 0 0 0-.011 0-.03z"/><path d="m210.33 706.33c-.02-.82-.55-16.84-4.08-36.88-.01-.08-.03-.16-.04-.24.34.03.68.05 1.02.07.26.029.51.04.77.05.09.03.17.05.26.08 3.6 20.479 4.07 36.729 4.07 36.89v.03h-1z"/><path d="m181 706.33h1c0 .39-.23.76-.61.92-.13.05-.26.08-.39.08-.39 0-.76-.23-.92-.61 0-.01-.06-.149-.17-.39z"/><path d="m168.42 590.82c-.45-.32-.56-.95-.24-1.4s.95-.55 1.4-.24c23.18 16.42 33.81 52.53 38.63 79.931.02.1.04.199.05.3-.09-.03-.17-.05-.26-.08-.26-.01-.51-.021-.77-.05-.34-.021-.68-.04-1.02-.07-4.79-27.001-15.23-62.421-37.79-78.391z"/><path d="m163.34 685.01c.21-.25.4-.529.57-.819.01.01.03.02.04.029l.2.15c.17.14.35.27.52.42 12.41 9.81 17.06 20.7 17.25 21.15.06.13.08.26.08.39h-1-1.09c-.95-2-5.78-11.51-16.51-20-.05-.04-.09-.08-.13-.1.13-.08.26-.16.4-.23l.35-.45c-.22-.19-.45-.36-.68-.54z"/><path d="m162.72 685.8.2.15c.11.09.22.17.35.28-3.64 2.05-5.82 3.68-10.27 4.68-5.59 1.26-11.28 1.359-17.01 1.42-9.35.1-17.11-2.66-24.99-7.26-7.25-4.23-14.52-11.12-15.92-20.04-1.6-10.15 8.15-21.96 19.2-19.391 3.09.721 3.7 4.04 5.14 6.36 1.64 2.65 3.17 3.35 6.33 3.67 8.24.82 15.38-5.53 23.92-2.35 7.52 2.79 13.18 10.239 14.75 17.949.72 3.53 1.52 9.461-.51 12.921-9.11-7-19.91-11.54-32.08-13.511-.55-.09-1.06.29-1.15.83-.09.55.29 1.061.83 1.15 11.86 1.912 22.37 6.332 31.21 13.142z" fill="#295fc5"/><path d="m162.92 685.95-.2-.15c-8.84-6.81-19.35-11.229-31.21-13.14-.54-.09-.92-.601-.83-1.15.09-.54.6-.92 1.15-.83 12.17 1.971 22.97 6.511 32.08 13.511-.17.29-.36.569-.57.819.23.181.46.351.68.54l-.35.45c-.14.07-.27.15-.4.23-.13-.11-.24-.19-.35-.28z"/><g fill="#e22953"><path d="m775.73 285-4 18-68-18z"/><path d="m740 190-36.5 19 23.5-26.77z"/><path d="m706.5 384.66-10 10.84-27.5-47.75z"/><path d="m681 119.5-39.5 47.5 19-55.5z"/></g><path d="m575.29 341.23v.12c0 .55.45.99 1 .99.51 0 .94-.39.99-.89 5.27.61 10.149 1.3 14.64 2.05-.01.06-.02.11-.02.17 0 .55.449 1 1 1 .489 0 .899-.36.979-.83v-.01c15.94 2.76 26.71 6.07 32.34 8.07 3.11 1.11 4.66 1.82 4.66 1.82l-6.26 14.53c-1.061-.31-2.12-.62-3.18-.91-36.73-10.25-70.891-10.56-81.96-10.34-2.41.05-3.73.12-3.73.12l-1.13-18c2.38 0 4.71.02 6.99.06 12.561.21 23.781.98 33.681 2.05z" fill="#a9d9ff"/><path d="m606.43 274.53c1.561-4.24 3.03-7.36 4.391-9.28 2.08-2.95 5.87-4.71 10.149-4.71 3.73 0 6.82 1.37 7.34 3.28.511 1.85-1.489 4.28-5.489 6.65-4.401 2.61-9.911 3.98-16.391 4.06z" fill="#ffc962"/><path d="m610.82 265.25c-1.36 1.92-2.83 5.04-4.391 9.28 6.48-.08 11.99-1.45 16.391-4.06 4-2.37 6-4.8 5.489-6.65-.52-1.91-3.609-3.28-7.34-3.28-4.279 0-8.069 1.76-10.149 4.71zm-5.48 9.34c1.51-4.16 3.09-7.69 4.66-9.92 7.34-10.42 30.17-3.34 13.33 6.66-4.98 2.95-11.021 4.18-17.32 4.21 0-.14-.02-.28-.08-.4-.02-.05-.05-.11-.09-.17-.03-.05-.08-.11-.13-.15-.04-.04-.09-.08-.14-.11-.04-.03-.08-.06-.12-.08-.04-.01-.07-.03-.11-.04z"/><path d="m605.92 275.94c-.07.2-.14.4-.2.6-.239 0-.47-.01-.71-.01.41 0 .76-.24.91-.59z"/><path d="m605.84 274.97c.04.06.07.12.09.17-.02-.06-.05-.12-.09-.17z"/><path d="m605.84 274.97c.04.05.07.11.09.17.061.12.08.26.08.4-.33 0-.67 0-1-.01.11-.32.221-.63.33-.94.04.01.07.03.11.04.04.02.09.05.12.08.05.03.1.07.14.11.05.04.1.1.13.15z"/><path d="m604.32 274.51c1.72-4.81 3.31-8.22 4.859-10.42 2.45-3.48 6.86-5.55 11.79-5.55 4.771 0 8.49 1.9 9.271 4.75.55 2-.12 5.17-6.4 8.9-4.859 2.88-10.939 4.35-18.06 4.35-.021 0-.04 0-.061 0 .061-.2.13-.4.2-.6.061-.12.09-.26.09-.4 6.3-.03 12.34-1.26 17.32-4.21 16.84-10-5.99-17.08-13.33-6.66-1.57 2.23-3.15 5.76-4.66 9.92-.07-.03-.149-.05-.24-.05-.01-.01-.02-.01-.029-.01-.021 0-.03 0-.051 0-.01 0-.01 0-.02 0-.229 0-.449-.01-.679-.02z"/><path d="m605.78 276.54c7.12 0 13.2-1.47 18.06-4.35 6.28-3.73 6.95-6.9 6.4-8.9-.78-2.85-4.5-4.75-9.271-4.75-4.93 0-9.34 2.07-11.79 5.55-1.55 2.2-3.14 5.61-4.859 10.42-7.391-.22-15.82-2.09-23.34-5.22-.28-7.9-.74-12.68-1.37-14.61-1.04-3.12-4.181-5.15-8-5.15-2.7 0-5.141 1.08-6.54 2.87-.91 1.17-1.83 3.22-1.04 6.32.95 3.71 6.67 8.26 15 11.91.489 14.74.29 35.11.229 40.05l-2.85-.34c-.29-.03-.57.05-.78.24-.22.19-.34.46-.34.75v19.85c-15.021-4.16-28.26-11.74-38.58-21.66-15.02-14.45-23.84-33.84-22.94-54.8 1.82-42.06 42.15-74.47 90.091-72.4 47.93 2.07 85.319 37.85 83.5 79.9-1.261 29.13-20.99 53.63-48.931 65.25-12.399 5.17-26.42 7.79-41.149 7.15-.5-.02-1-.05-1.5-.08l4.17-20.34c.06-.27-.01-.56-.17-.79-.16-.22-.41-.37-.69-.4l-2.57-.3c.91-4.56 4.69-23.04 9.2-36.17z" fill="#ffc962"/><path d="m605.71 274.82c-.04-.04-.09-.08-.14-.11.05.03.1.07.14.11z"/><path d="m605.57 274.71c-.03-.03-.08-.06-.12-.08.04.02.08.05.12.08z"/><path d="m605.45 274.63c-.04-.01-.07-.03-.11-.04.04.01.07.03.11.04z"/><path d="m605.1 274.54c-.01-.01-.02-.01-.029-.01.009 0 .019 0 .029.01z"/><path d="m605.01 275.53c.33.01.67.01 1 .01 0 .14-.029.28-.09.4-.15.35-.5.59-.91.59-.01 0-.01 0-.01 0-.11 0-.21-.02-.31-.06.1-.32.21-.63.32-.94z"/><path d="m605 274.53h.02.051c.01 0 .02 0 .029.01.091 0 .17.02.24.05-.109.31-.22.62-.33.94-.33 0-.66-.01-1-.03 0-.1.021-.2.061-.3.02-.05.04-.1.06-.15.179-.32.519-.52.869-.52z"/><path d="m605 274.53c-.35 0-.69.2-.87.52.061-.18.12-.37.19-.54.23.01.45.02.68.02z"/><path d="m605 276.53c-.11 0-.22 0-.33-.01.01-.02.01-.04.021-.05.099.04.199.06.309.06z"/><path d="m605.01 275.53c-.109.31-.22.62-.319.94-.2-.06-.381-.19-.5-.37-.131-.18-.19-.39-.181-.6.34.02.67.03 1 .03z"/><path d="m604.07 275.2c-.04.1-.061.2-.061.3-.01 0-.02 0-.04 0 .031-.1.071-.2.101-.3z"/><path d="m604.19 276.1c.119.18.3.31.5.37-.011.01-.011.03-.021.05-.34 0-.689-.01-1.04-.03.11-.34.22-.67.34-.99h.04c-.009.21.051.42.181.6z"/><path d="m603.63 276.49c-4.52 13.35-8.26 31.73-9.1 35.98l-13.271-1.56c.05-4.47.26-24.51-.2-39.42 7.391 2.96 15.291 4.71 22.571 5z" fill="#ffc962"/><path d="m595.78 334.54c.5.03 1 .06 1.5.08 14.729.64 28.75-1.98 41.149-7.15v.01l-12.21 24.42c-5.63-2-16.399-5.31-32.34-8.07z" fill="#ffc962"/><path d="m599.95 314.2-4.17 20.34c-.34-.02-.67-.04-1-.06l4.19-20.48-2.63-.31c.021-.14.09-.47.18-.98l2.57.3c.28.03.53.18.69.4.16.23.23.52.17.79z"/><path d="m597.77 314.87-4 19.53c-5.67-.43-11.18-1.35-16.479-2.7v-19.24l2.75.32 15.3 1.8z" fill="#ffc962"/><path d="m597.25 425.25c3.25.5 2.5 8.25-7.5 17s-27.73 11.77-34.62 14.51c-4.189-3.41-10.06-7.6-13.51-10.02 0 0 10.63-28.74 13.63-25.99s2.5 14.5 2.5 14.5 36.25-10.5 39.5-10z" fill="#fda181"/><path d="m605.72 276.54c-4.51 13.13-8.29 31.61-9.2 36.17l-.989-.12c.87-4.4 4.609-22.76 9.14-36.07.11.01.22.01.33.01h.01c.239 0 .469.01.709.01z"/><path d="m593.77 334.4 4-19.53-2.43-.29v-.01c.47 0 .891-.33.98-.81 0-.01.01-.03.02-.07l2.63.31-4.189 20.48c-.341-.02-.681-.05-1.011-.08z"/><path d="m595.78 334.54-1.9 9.29c-.32-.06-.649-.11-.979-.17l1.88-9.18c.329.02.659.04.999.06z"/><path d="m594.53 312.47c.84-4.25 4.58-22.63 9.1-35.98.351.02.7.03 1.04.03-4.53 13.31-8.27 31.67-9.14 36.07z"/><path d="m596.52 312.71c-.09.51-.159.84-.18.98l-1-.12s.07-.34.19-.98z"/><path d="m594.36 313.38c0-.03.06-.34.17-.91l1 .12c-.12.64-.19.98-.19.98l-.99-.12c0-.02.01-.05.01-.07z"/><path d="m595.15 314.55c-.521-.1-.87-.58-.801-1.1l.99.12 1 .12c-.01.04-.02.06-.02.07-.09.48-.511.81-.98.81-.059 0-.119-.01-.189-.02z"/><path d="m593.77 334.4c.33.03.671.06 1.011.08l-1.88 9.18c-.32-.05-.65-.11-.98-.16 0-.01 0-.03 0-.04z"/><path d="m581.26 310.91 13.271 1.56c-.11.57-.17.88-.17.91 0 .02-.011.05-.011.07l-13.109-1.53c.01-.03.01-.07.01-.11-.001-.03-.001-.34.009-.9z"/><path d="m577.29 331.7c5.3 1.35 10.81 2.27 16.479 2.7l-1.85 9.06v.04c-4.49-.75-9.37-1.44-14.64-2.05.01-.03.01-.07.01-.11v-9.64z" fill="#ffc962"/><path d="m592.9 343.66c.33.06.659.11.979.17v.01c-.08.47-.49.83-.979.83-.551 0-1-.45-1-1 0-.06.01-.11.02-.17.33.05.66.11.98.16z"/><path d="m580.98 269.29c7.52 3.13 15.949 5 23.34 5.22-.07.17-.13.36-.19.54-.02.05-.04.1-.06.15-.03.1-.07.2-.101.3-7.93-.27-16.13-2.33-22.939-5.11-.011-.14-.011-.28-.021-.42 0-.01 0-.02 0-.03-.009-.22-.019-.44-.029-.65z"/><path d="m581.03 270.39c6.81 2.78 15.01 4.84 22.939 5.11-.12.32-.229.65-.34.99-7.28-.29-15.18-2.04-22.57-5-.009-.37-.019-.74-.029-1.1z"/><path d="m581.25 311.81c0 .04 0 .08-.01.11l-.99-.12s.01-.36.01-1.01l1 .12c-.01.56-.01.87-.01.9z"/><path d="m580.26 310.79c.061-4.7.271-24.81-.21-39.72.34.14.681.28 1.01.42.46 14.91.25 34.95.2 39.42z"/><path d="m581.06 271.49c-.329-.14-.67-.28-1.01-.42 0-.04-.01-.07-.01-.1.19-.01.38-.07.54-.18s.28-.26.35-.44c.03.02.061.03.101.04.009.36.019.73.029 1.1z"/><path d="m580.93 270.35c.051-.12.08-.25.08-.38.01.14.01.28.021.42-.041-.01-.071-.02-.101-.04z"/><path d="m580.98 269.29c.01.21.02.43.029.65-.01-.41-.3-.75-.649-.9.01 0 .029 0 .04.01.19.08.39.16.58.24z"/><path d="m580.01 269.97c.3.13.61.26.92.38-.069.18-.189.33-.35.44s-.35.17-.54.18c-.01-.34-.02-.67-.03-1z"/><path d="m580.26 310.79c0 .65-.01 1.01-.01 1.01l-1-.12c0-.16.01-.5.01-1z"/><path d="m595.34 314.58-15.3-1.8c.06.01.13.02.2.02h.01c.51 0 .93-.38.99-.88l13.109 1.53c-.069.52.28 1 .801 1.1.069.01.13.02.189.02v.01z"/><path d="m579.26 310.68c.061-4.94.26-25.31-.229-40.05.189.09.39.17.59.26.14.06.29.12.43.18.48 14.91.271 35.02.21 39.72z"/><path d="m579.97 268.97c.13-.01.271.02.391.07.35.15.64.49.649.9v.03c0 .13-.029.26-.08.38-.31-.12-.62-.25-.92-.38-.01-.34-.02-.67-.04-1z"/><path d="m580.05 271.07c-.14-.06-.29-.12-.43-.18.12.05.26.08.39.08h.03c0 .03.01.06.01.1z"/><path d="m580.01 269.97c-.31-.13-.609-.27-.92-.4.101-.23.28-.41.5-.51.061-.03.12-.05.18-.06.07-.02.131-.03.2-.03.02.33.03.66.04 1z"/><path d="m579.77 269c-.06.01-.119.03-.18.06.06-.02.12-.05.18-.06z"/><path d="m579.62 270.89c-.37-.16-.601-.5-.61-.88 0-.08 0-.16.021-.24.01-.07.029-.13.06-.19 0-.01 0-.01 0-.01.311.13.61.27.92.4.01.33.021.66.03 1-.01 0-.021 0-.03 0-.131 0-.271-.03-.391-.08z"/><path d="m579.25 311.68 1 .12.99.12c-.061.5-.48.88-.99.88h-.01c-.07 0-.141-.01-.2-.02-.46-.1-.8-.51-.79-.99 0-.01 0-.05 0-.11z"/><path d="m579.01 270.01c.01.38.24.72.61.88-.2-.09-.4-.17-.59-.26-.01-.21-.01-.42-.02-.62z"/><path d="m579.09 269.58c-.03.06-.05.12-.06.19.01-.06.03-.13.06-.19z"/><path d="m578.95 268.41c-7.101-3.26-12.24-7.26-12.98-10.19-.47-1.86-.239-3.4.681-4.59 1.02-1.31 2.88-2.1 4.96-2.1 2.229 0 5.17.99 6.1 3.78.379 1.15.889 4.37 1.239 13.1z" fill="#ffc962"/><path d="m576.29 311.33 2.96.35v.11c-.01.48.33.89.79.99l-2.75-.32v19.24c-.34-.08-.67-.16-1-.25z"/><path d="m576.29 341.34v-9.89c.33.09.66.17 1 .25v9.64c0 .04 0 .08-.01.11-.33-.04-.66-.07-.99-.11z"/><path d="m576.41 310.34 2.85.34c0 .5-.01.84-.01 1l-2.96-.35v20.12c-.33-.09-.67-.18-1-.27v-19.85c0-.29.12-.56.34-.75.21-.19.49-.27.78-.24z"/><path d="m576.29 331.45v9.89c-.33-.04-.67-.07-1-.11v-10.05c.33.09.67.18 1 .27z"/><path d="m576.29 341.34c.33.04.66.07.99.11-.05.5-.48.89-.99.89-.55 0-1-.44-1-.99v-.12c.33.04.67.07 1 .11z"/><path d="m575.29 331.18v10.05c-9.9-1.07-21.12-1.84-33.68-2.05l-4.9-29.66c10.32 9.92 23.56 17.5 38.58 21.66z" fill="#ffc962"/><path d="m572.5 106.5-2.2 45.5-10.28-45.5z" fill="#e22953"/><path d="m545.33 373.1c9.87.27 38.01 1.64 66.88 8.67l-.21.88-2.5 12.85c-39.2-7.5-64-8.5-64-8.5l-.19-13.17z" fill="#295fc5"/><path d="m577.71 255.31c-.93-2.79-3.87-3.78-6.1-3.78-2.08 0-3.94.79-4.96 2.1-.92 1.19-1.15 2.73-.681 4.59.74 2.93 5.88 6.93 12.98 10.19-.349-8.73-.859-11.95-1.239-13.1zm-12.71 3.16c-2.33-9.19 11.33-10.47 13.66-3.47.649 1.96 1.06 7.3 1.31 13.97-.069 0-.13.01-.2.03-.06.01-.119.04-.18.06-.22.1-.399.28-.5.51-7.66-3.42-13.22-7.68-14.09-11.1z"/><path d="m578.66 255c-2.33-7-15.99-5.72-13.66 3.47.87 3.42 6.43 7.68 14.09 11.1v.01c-.03.06-.05.13-.06.19-.021.08-.021.16-.021.24.01.2.01.41.021.62-8.33-3.65-14.05-8.2-15-11.91-.79-3.1.13-5.15 1.04-6.32 1.399-1.79 3.84-2.87 6.54-2.87 3.819 0 6.96 2.03 8 5.15.63 1.93 1.09 6.71 1.37 14.61-.19-.08-.391-.16-.58-.24-.011-.01-.03-.01-.04-.01-.12-.05-.261-.08-.391-.07-.249-6.67-.659-12.01-1.309-13.97z"/><path d="m541.62 446.74c3.45 2.42 9.32 6.61 13.51 10.02 2.521 2.05 4.44 3.81 4.87 4.74.33.72-2.74 3.58-7.82 7.62-7.529-7.72-24.02-17.73-24.02-17.73 6.24-3.89 10.59-6.64 10.59-6.64s1.13.77 2.87 1.99z" fill="#a9d9ff"/><path d="m621 369-5.25 13.65c-1.18-.31-2.36-.6-3.54-.88-28.87-7.03-57.01-8.4-66.88-8.67-2.39-.06-3.71-.06-3.71-.06l-2.12-14.79-.02-1.25c11.069-.22 45.229.09 81.96 10.34z" fill="#3e89fc"/><path d="m507.61 149.14 8.89 40.86-25.6-36.36z" fill="#e22953"/><path d="m502.5 319.5-36.5 28.25-7-13.03z" fill="#e22953"/><path d="m484 258.47-57.19-7.94 4.19-18.03z" fill="#e22953"/><path d="m485 513.5c-8.5 1.75-34.75-16-34.75-16l-.77-.24c.68-2.26 1.16-4.22 1.27-5.51.25-2.93-2.81-11.39-5.87-18.98 9.77 14.59 25.7 34.67 42.22 39.97-.89.4-1.6.66-2.1.76z" fill="#295fc5"/><path d="m429.31 864.29c12.83 3.61 24.36 1.19 28.66.01l.53 4.95s29.25 6 35 8.02c5.75 2.021 4.75 12.98 4.75 12.98l-70.75-4.25z" fill="#1e1950"/><path d="m421.54 605.03v-.011c4.37-.649 8.72-1.479 12.96-2.52 36.75-9 38.25-12.5 38.25-12.5s.92 105.83-8.08 162.33c0 0-1.42 101.92-4.92 111.42 0 0-.63.23-1.78.55-4.3 1.181-15.83 3.601-28.66-.01-.6-.16-1.2-.34-1.81-.54 0 0 .33-94.75 1.83-107.75s-16.42-114.75-16.42-114.75l-.62-.16c5.38-20.929 9.25-36.059 9.25-36.059z" fill="#403882"/><path d="m418.5 404.25s27.44 4.99 11.8 27.43c-5.32.28-13.13.96-19.04 1.51-4.75.45-8.26.81-8.26.81l-2.73-10.75-1.52-6s19-8.5 19.75-13z" fill="#1e1950"/><path d="m416.92 452.67v5.33l-16.97-10.74z" fill="#295fc5"/><path d="m411.26 433.19 5.66 19.48-16.97-5.41-3.95-1.26 7-12s3.51-.36 8.26-.81z" fill="#a9d9ff"/><path d="m392.98 382.63c.92-.2 1.36-1.79.97-3.54-.38-1.76-1.44-3.02-2.36-2.82s-1.36 1.79-.98 3.54c.39 1.76 1.45 3.02 2.37 2.82zm10.22-6.02c.39 1.76 1.45 3.02 2.37 2.82s1.36-1.79.97-3.55c-.38-1.75-1.44-3.02-2.36-2.81-.92.2-1.36 1.78-.98 3.54zm-2.02 6.06c.12.5 2.37 9.67 4.32 12.83l4.33-5.5c-3.71-1.62-8.36-7-8.65-7.33zm-38.68 12.08c.5-8.5 8.5-7.5 8.5-7.5l.35-6.5s7.66-4.94 12.95-12.63c.36-.1.69-.19 1-.26 1.08-.15 3.49-.34 5.01-.01.54.11 1.07-.23 1.19-.77.11-.54-.23-1.07-.77-1.19-1.64-.35-3.79-.22-4.94-.1 2.99-5.18 4.65-11.38 2.46-18.04 0 0 13.6.24 18.54 14.14-2.95.55-5.15 1.67-5.25 1.72-.49.26-.68.86-.43 1.35.18.34.53.54.89.54.16 0 .31-.04.46-.11.02-.01 2.1-1.08 4.82-1.57.05-.01.09-.02.14-.02 1.06 3.22 2.23 6.79 3.4 10.43 4.1 12.81 8.25 26.62 7.68 30.02-.75 4.5-19.75 13-19.75 13s-5.5 1.85-12.75-1.13c0 0 4.44 6.07 14.27 7.13l2.73 10.75-7 12-18.75-5.75c8-19.25-2.75-38.75-2.75-38.75s-12.5 1.75-12-6.75zm42.37 13.08c3.46-2.33 3.8-7.83 3.8-7.83s-8.17 2.67-15.5 2c0 0 8.24 8.17 11.7 5.83z" fill="#fda181"/><path d="m409.83 390-4.33 5.5c-1.95-3.16-4.2-12.33-4.32-12.83.29.33 4.94 5.71 8.65 7.33z" fill="#f77556"/><path d="m408.67 400s-.34 5.5-3.8 7.83c-3.46 2.34-11.7-5.83-11.7-5.83 7.33.67 15.5-2 15.5-2z" fill="#fff"/><path d="m411.21 363.66c-1.16-.14-2.43-.08-3.79.14-.1-.32-.21-.64-.31-.96-.04-.11-.07-.23-.11-.34-.07-.21-.14-.41-.21-.61.05-.01.09-.02.14-.03 1.61-.29 3.12-.35 4.52-.18.54.06.94.56.87 1.11-.06.54-.56.94-1.11.87z"/><path d="m405.57 379.43c-.92.2-1.98-1.06-2.37-2.82-.38-1.76.06-3.34.98-3.54.92-.21 1.98 1.06 2.36 2.81.39 1.76-.05 3.35-.97 3.55z" fill="#231f20"/><path d="m407.28 363.82c-2.72.49-4.8 1.56-4.82 1.57-.15.07-.3.11-.46.11-.36 0-.71-.2-.89-.54-.25-.49-.06-1.09.43-1.35.1-.05 2.3-1.17 5.25-1.72.07.2.14.4.21.61.04.11.07.23.11.34.1.32.21.64.31.96-.05 0-.09.01-.14.02z"/><path d="m398.75 417.25 1.52 6c-9.83-1.06-14.27-7.13-14.27-7.13 7.25 2.98 12.75 1.13 12.75 1.13z" fill="#f77556"/><path d="m396 446-9.67 15.33-9.76-15.32-.01-.01-3.26-5.11v-.01c2.45-.39 3.95-.63 3.95-.63z" fill="#a9d9ff"/><path d="m391.59 376.27c.92-.2 1.98 1.06 2.36 2.82.39 1.75-.05 3.34-.97 3.54s-1.98-1.06-2.37-2.82c-.38-1.75.06-3.34.98-3.54z" fill="#231f20"/><path d="m387 470-10.43-23.99 9.76 15.32 9.67-15.33 3.95 1.26z" fill="#295fc5"/><path d="m390.31 367.85c-1.52-.33-3.93-.14-5.01.01-.31.07-.64.16-1 .26.29-.41.56-.83.83-1.25h.01c.22-.35.44-.71.65-1.08 1.15-.12 3.3-.25 4.94.1.54.12.88.65.77 1.19-.12.54-.65.88-1.19.77z"/><path d="m384.3 368.12c-2.28.63-5.36 1.73-6.33 2.74-.19.21-.46.31-.72.31-.25 0-.5-.09-.69-.28-.4-.38-.41-1.01-.03-1.41 1.89-2 7.71-3.43 8.37-3.58.05-.01.1-.02.15-.03.12-.01.38-.05.74-.08-.21.37-.43.73-.65 1.08-.01 0-.01 0-.01 0-.27.42-.54.84-.83 1.25z"/><path d="m354.31 588.5c.05-2-3.73-11.1-3.73-11.1l2.31-1.091s13.86-29.56 12.36-37.56c-.68-3.65-12.15-31.69-18.25-46.46-2.24-5.41-3.75-9.04-3.75-9.04l-.8-.16-5.89 28.83-9.06 17.081 19.91 37.11c-11.53 2.859-19.06 8.13-22.59 11.08-9.32-15.091-26.39-42.94-26.57-44.94-.25-2.75 34-82.25 35.25-83.75.29-.35 2.83-.99 6.55-1.75 9.23-1.91 25.72-4.64 33.25-5.87v.01l3.26 5.11.01.01 10.43 23.99 12.95-22.74 16.97 10.74v-5.33l-5.66-19.48c5.91-.55 13.72-1.23 19.04-1.51 3.21-.16 5.51-.18 5.95.07 1.75 1 45 46 48 45.75 2.13-.18 28.67-16.59 43.91-26.11 0 0 16.49 10.01 24.02 17.73-16.51 13.14-54.24 38.74-65.08 43.62-16.52-5.3-32.45-25.38-42.22-39.97 3.06 7.59 6.12 16.05 5.87 18.98-.11 1.29-.59 3.25-1.27 5.51-2.33 7.75-6.98 18.99-6.98 18.99s24 43.75 30.25 73.75c0 0-1.5 3.5-38.25 12.5-4.24 1.04-8.59 1.87-12.96 2.52-33.51 5.07-68.47.011-68.47.011.72-7.541 1.21-15.511 1.24-16.531z" fill="#3e89fc"/><path d="m362.5 394.75c-.5 8.5 12 6.75 12 6.75s10.75 19.5 2.75 38.75c0 0-1.5.24-3.95.63-7.53 1.23-24.02 3.96-33.25 5.87v-.01c-.03 0-9.05-.01-10.3-14.24-1.25-14.25 16.75-21.5 18.5-30.25s-9.75-16-7.75-30 13.25-31.75 45.5-37 36.88 23.21 24.82 38.98c-1.17-3.64-2.34-7.21-3.4-10.43 1.36-.22 2.63-.28 3.79-.14.55.07 1.05-.33 1.11-.87.07-.55-.33-1.05-.87-1.11-1.4-.17-2.91-.11-4.52.18-.05.01-.09.02-.14.03-4.94-13.9-18.54-14.14-18.54-14.14 2.19 6.66.53 12.86-2.46 18.04-.36.03-.62.07-.74.08-.05.01-.1.02-.15.03-.66.15-6.48 1.58-8.37 3.58-.38.4-.37 1.03.03 1.41.19.19.44.28.69.28.26 0 .53-.1.72-.31.97-1.01 4.05-2.11 6.33-2.74-5.29 7.69-12.95 12.63-12.95 12.63l-.35 6.5s-8-1-8.5 7.5z" fill="#1e1950"/><path d="m347.41 566.11 5.48 10.199-2.31 1.091-16.89 7.97-2.94 1.38s-2.41-3.87-5.93-9.56c3.53-2.95 11.06-8.22 22.59-11.08z" fill="#a9d9ff"/><path d="m350.58 577.4s3.78 9.1 3.73 11.1c-.03 1.02-.52 8.99-1.24 16.53-.69 7.25-1.59 14.09-2.49 13.97-.69-.09-2.42-1.14-4.48-2.87-3.42-2.89-7.73-7.67-9.6-13.13-3-8.75-2.81-17.63-2.81-17.63z" fill="#fda181"/><path d="m342 766.5c.75-14.25 3.71-148.49 4.1-150.37 2.06 1.73 3.79 2.78 4.48 2.87.9.12 1.8-6.72 2.49-13.97 0 0 34.96 5.06 68.47-.011v.011s-3.87 15.13-9.25 36.06c-11.56 44.89-30.07 116.44-32.29 122.41 0 0-1.75 40.68-23.5 92.93 0 0-.8.261-2.25.57-4.44.96-14.99 2.44-27.47-1.33-1.4-.43-2.83-.92-4.28-1.49 0 0 18.75-73.43 19.5-87.68z" fill="#295fc5"/><path d="m326.78 855.67c12.48 3.771 23.03 2.29 27.47 1.33l-2.75 27.75-67.75 1.25s0-8.25 2-12.25 36.75-10.25 36.75-10.25z" fill="#1e1950"/><path d="m343.25 483.25s1.51 3.63 3.75 9.04l-.02.01-10.42 19.62 5.89-28.83z" fill="#295fc5"/><path d="m663 244.333c-.982-9.347-9.184-24.136-16.664-29.336-2.12-1.474-9.193-4.898-11.867-2.529-4.381 3.881 2.108 10.578 4.531 13.198 4.043 4.373 8.498 8.831 11.185 13.966 1.997 3.815 2.72 8.865 5.316 12.2 7.28 9.35 11.009-2.475 6.832-9.499" fill="#fff"/><path d="m660.333 270.333c-.929 2.296-3.698 11.24-2.679 14 1.558 4.217 6.326 5.344 9.245 1.333 4.61-6.338-5.195-20.189-7.899-12" fill="#fff"/></svg>