<svg viewBox="0 0 1202.16 444.05" xmlns="http://www.w3.org/2000/svg"><g fill="#fff"><path d="m1198.31 382-54.1-55h20.79c6.1 0 11.5-3 14.07-7.93a12.31 12.31 0 0 0 -2.22-14.61l-52.9-55.21h19.56c6.16 0 11.72-3.25 14.13-8.27a12.48 12.48 0 0 0 -2.87-14.62l-74.72-71.36c-4.08-3.92-11.7-3.92-15.79 0l-74.67 71.36a12.48 12.48 0 0 0 -2.87 14.64c2.41 5 8 8.27 14.13 8.27h19.56l-52.91 55.19a12.34 12.34 0 0 0 -2.21 14.6c2.57 4.89 8 7.93 14.07 7.93h20.74l-54.1 55.01a12.36 12.36 0 0 0 -2.41 14.74c2.54 4.89 8.12 8.05 14.22 8.05h92.67v11.85l-18.48 13.36c-3.6 6.47 1.64 14.07 9.69 14.07h61c8.06 0 13.3-7.6 9.69-14.07l-18.51-13.39v-11.87h92.67c6.1 0 11.69-3.16 14.23-8.05a12.39 12.39 0 0 0 -2.46-14.69zm-85.92-102.74a9 9 0 0 1 6.59-2.7 9.56 9.56 0 0 1 6.76 2.7 8.78 8.78 0 0 1 2.7 6.42 9 9 0 0 1 -2.7 6.59 9.25 9.25 0 0 1 -6.76 2.88 8.68 8.68 0 0 1 -6.59-2.88 8.94 8.94 0 0 1 -2.71-6.59 8.76 8.76 0 0 1 2.71-6.47zm-72.67-29.26h27l-1-13 12.51-1 1 14h24v12.85h-23l3.38 42.75-18.59.17 5.41-9.29-2.71-33.63h-28zm2.7 19.1 7.44 10.31-32.45 26.53-7.61-10.31zm-40.9 107.15a11.25 11.25 0 0 1 -3.21-.34l.17-11.83q6.25-.51 9.13-3a11.41 11.41 0 0 0 5.24-7.95l12.5 1.36a27.19 27.19 0 0 1 -7.27 14.7 23.37 23.37 0 0 1 -16.56 7.03zm60.84-3.72-20.11-9.53 1.19 24.51-18.09.17 5.24-9.13-1.52-39.88h-23.66v-12.67h23.15l-.5-11 12.16-1 .51 12h21.63v12.7h-21.12l.84 19.09 3.92-6.79 21.8 10zm17.41 10.81-9.29-8.61 21.8-25.36 9.63 8.62zm58.81-9.29-16.9-10.48 1 23.49-18.09.17 5.24-9.12-1.52-39.72h-18.08v-12.87h17.57l-.33-10 12.16-1 .51 11h17.92v12.84h-17.41l.67 18.08 3.55-5.91 20.13 12.34z"/><path d="m833.51 319.83a24.37 24.37 0 0 0 -9.63 19.87 17.47 17.47 0 0 0 4.5 11.88 14.58 14.58 0 0 0 11.38 5.5q8.5 0 13.12-7.75 3.89-6.37 3.88-15.5a119.35 119.35 0 0 0 -2.13-22.25q-12.87 1.5-21.12 8.25z"/><path d="m910 280h-101a12 12 0 0 0 -12 12v101a12 12 0 0 0 12 12h101a12 12 0 0 0 12-12v-101a12 12 0 0 0 -12-12zm-12.87 91.33a57.31 57.31 0 0 1 -23.62 18.5l-4-9.13a48.06 48.06 0 0 0 19.12-15 36.21 36.21 0 0 0 8-22.62q0-13.63-9.25-22.25-8.75-8.13-22.75-9.38a134.72 134.72 0 0 1 2.13 22.38q0 13.5-6.63 22.75a24.68 24.68 0 0 1 -38.62 2.25 27.35 27.35 0 0 1 -7.63-19.13q0-18 14.5-28.75 13.13-9.61 31.88-9.62 19.62 0 32.62 10.87 13.75 11.63 13.75 30.88a46.51 46.51 0 0 1 -9.5 28.25z"/><path d="m687 257.91q-22 0-37.57 16.2a54.49 54.49 0 0 0 -15.53 38.7q0 22.05 15.53 38.25 15.57 15.94 37.57 15.94a50 50 0 0 0 37.58-16 52.94 52.94 0 0 0 15.52-38.25 54.48 54.48 0 0 0 -15.52-38.7 49.68 49.68 0 0 0 -37.58-16.14z"/><path d="m765 225h-156a12 12 0 0 0 -12 12v156a12 12 0 0 0 12 12h156a12 12 0 0 0 12-12v-156a12 12 0 0 0 -12-12zm-27.33 138.89q-20.92 21.38-50.67 21.37-29.47 0-50.4-21.6-20.92-21.37-20.92-50.85 0-29.7 20.7-51.3 20.93-21.82 50.62-21.82t50.63 21.6q20.7 21.6 20.7 51.52.04 29.7-20.66 51.08z"/><path d="m565 225h-156a12 12 0 0 0 -12 12v156a12 12 0 0 0 12 12h156a12 12 0 0 0 12-12v-156a12 12 0 0 0 -12-12zm-17.46 36h-18.67v71.1q0 53.33-35.78 53.33-29.47 0-55.8-22.73l10.58-14.62q19.35 19.35 45.22 19.35 17.55 0 17.55-35.33v-71.1h-18.44v-17.76h55.34z"/><path d="m368 225h-156a12 12 0 0 0 -12 12v156a12 12 0 0 0 12 12h156a12 12 0 0 0 12-12v-156a12 12 0 0 0 -12-12zm-27.44 139.15q-20.93 21.38-50.62 21.37-29.49 0-50.4-21.6-20.92-21.37-20.93-50.85 0-29.7 20.7-51.3 20.93-21.77 50.63-21.77t50.62 21.6a71.89 71.89 0 0 1 20.7 51.52q0 29.65-20.7 51.03z"/><path d="m289.94 258.17q-22.06 0-37.58 16.2a54.48 54.48 0 0 0 -15.52 38.7q0 22.07 15.52 38.25 15.52 16 37.58 16 22.28 0 37.57-16a53 53 0 0 0 15.49-38.25 54.49 54.49 0 0 0 -15.53-38.7 49.66 49.66 0 0 0 -37.53-16.2z"/><path d="m168 225h-156a12 12 0 0 0 -12 12v156a12 12 0 0 0 12 12h156a12 12 0 0 0 12-12v-156a12 12 0 0 0 -12-12zm-29.61 48.72q-26.77-16.2-47.47-16.2-14 0-23.63 4.27-12.83 5.64-12.82 17.33 0 9.9 11.7 16.88 3.83 2.25 26.77 11.92 20.93 8.77 28.58 14.4 14.63 11 14.62 27 0 17.32-16.2 27.45-13.72 8.55-31.95 8.55-13.5 0-27.67-7t-22-18l13.5-11.25q5.4 7.65 16.2 12.82 11 5.4 20 5.4a44.14 44.14 0 0 0 19.13-4.05q10.8-5.17 10.8-13.95 0-12.15-20.25-21.37-9.9-4.05-29.7-12.38-31.5-13.95-31.5-36.45 0-20.7 18-31.05 14.4-8.32 36.45-8.32 27 0 57.15 18.22z"/><path d="m82.34 72.27a15 15 0 1 1 15.35-15 15.18 15.18 0 0 1 -15.35 15zm50.66 69.23 4.73 10.79h21.38a10 10 0 1 1 0 20h-24.8a15.32 15.32 0 0 1 -14.1-9.09l-2.81-6.41 3.41-2a30 30 0 0 0 12.19-13.29zm-86.47-29.22h14.08l8.33-16.65a30.57 30.57 0 0 1 19.76-15.92l22.72-6.61a31.14 31.14 0 0 1 25.85 5.36l12.73 9.54a9.85 9.85 0 0 1 1.89 14 10.39 10.39 0 0 1 -14.34 1.85l-12.69-9.51a10.14 10.14 0 0 0 -8.08-1.92l-4.78 1.36 12 27.32a19.83 19.83 0 0 1 -8.41 25.1l-27.16 15.68 8.78 27.42a10 10 0 0 1 -6.7 12.54 10.53 10.53 0 0 1 -3.07.46 10.2 10.2 0 0 1 -9.75-7l-10.12-31.61a14.93 14.93 0 0 1 6.92-17l19.58-11.3-10-24.47-6.48 13a15.49 15.49 0 0 1 -13.78 8.4h-17.28a10 10 0 1 1 0-20z"/><path d="m607.5 0c-34.34 0-66.19 5.83-92.5 15.78-26.31-9.95-58.16-15.78-92.5-15.78-43.83 0-83.64 9.5-113 25-24.69 2.83-47.33 8.77-66.5 17s-71-13-118 14c45.52-1.94 72.28 14 73.92 15-12.07 12.5-18.92 26.81-18.92 42 0 49.71 73.2 90 163.5 90 33.9 0 65.39-5.68 91.5-15.4 26.11 9.72 57.6 15.4 91.5 15.4 43.56 0 83.15-9.38 112.45-24.67 75.25-8.07 132.05-44.55 132.05-88.33 0-49.71-73.2-90-163.5-90zm-302.5 133.17a60.48 60.48 0 0 1 -13.2 20.52l-7-7a52.31 52.31 0 0 0 11-17.4 53.9 53.9 0 0 0 4.2-20.16q0-15.24-14.64-15.24a47.28 47.28 0 0 0 -5.28.36l-20.52 55.56-9.24-3.36 18.68-50.12a193.58 193.58 0 0 0 -19.32 4.92l-2.88-9.36a200.91 200.91 0 0 1 26.16-6.36l7.92-21.12 9.12 3.36-6 16.44q2.88-.24 4.08-.24 10.2 0 16.2 7.2 5.64 6.84 5.64 18a63.45 63.45 0 0 1 -4.92 24zm32.64-22-8.4-5a10.35 10.35 0 0 0 1.32-5.28q0-2.88-5.88-9.36a57.26 57.26 0 0 0 -8.64-8l5.88-7.92a67.06 67.06 0 0 1 11.76 11.16q6.72 8.28 6.72 14.16a19.94 19.94 0 0 1 -2.79 10.28zm220.05-51.32a6.37 6.37 0 0 1 4.68-1.92 6.44 6.44 0 0 1 4.68 2 6.05 6.05 0 0 1 2 4.56 6.56 6.56 0 0 1 -6.72 6.72 6.37 6.37 0 0 1 -4.68-1.92 6.77 6.77 0 0 1 -1.92-4.8 6.37 6.37 0 0 1 1.96-4.64zm-17.88 32.15q31.32.72 31.32 13.56 0 4.92-4.68 10.56a36.63 36.63 0 0 1 -9 7.92l-5-8.16a32.65 32.65 0 0 0 5.76-4.92q3.12-3.24 3.12-5 0-1.44-6.6-2.76a75.14 75.14 0 0 0 -15.12-1.56zm-148.92 53.53q-24.36 0-24.36-27.48 0-10 3.72-26.64a252.72 252.72 0 0 1 7.08-26.41l9.12 2.88q-3.72 11.4-6.72 25-3.6 16.2-3.6 25.2 0 17.88 14.76 17.88zm64.92-45.12h-21.81q-.24 43.44-9.36 55.08l-7.8-5.52q7.2-7.56 7.56-49.56h-30.27v-9.6h30.24v-28.92h9.63v28.92h21.84zm58.92-14.52-18.48 64.11-9.12-2.64 17.64-61.44h-18.48v-9.6h21.24l4.47-15.39 9.12 2.64-3.6 12.72h13.44v9.6zm39.48 69.36a34.25 34.25 0 0 1 -16-3.72 23.73 23.73 0 0 1 -11.16-11.76l8.64-3.84a15.11 15.11 0 0 0 7.8 7.44 24.58 24.58 0 0 0 10.68 2.28 42.36 42.36 0 0 0 13.92-2.16l3.12 9.12a52.16 52.16 0 0 1 -17 2.64zm26.64-74.64a6.66 6.66 0 0 1 -9.36 0 6.62 6.62 0 1 1 9.36-9.36 6.66 6.66 0 0 1 0 9.36zm110.4 19.44h-18.84v18.48h-9.6v-18.48h-39.24a121.08 121.08 0 0 0 -1 14.76q0 12.36 6.72 19.68t19 7.32a81 81 0 0 0 16.56-1.92 61.57 61.57 0 0 0 15.84-5l4.32 8.64a70.1 70.1 0 0 1 -17.88 5.76 91.4 91.4 0 0 1 -18.84 2.16q-16.32 0-25.8-10.08t-9.49-26.56a135.86 135.86 0 0 1 .84-14.76h-12.35v-9.6h13.68q1.92-11.28 6-26.16l9.36 2.64q-3.84 13.44-5.64 23.52h37.92v-25.2h9.6v25.2h18.84z"/></g></svg>