<svg xmlns="http://www.w3.org/2000/svg" viewBox="0 0 62.53 256"><defs><style>.cls-1{fill:#003049;}.cls-2{fill:#f77f00;}.cls-3{fill:none;}</style></defs><title>pin_offset</title><g id="レイヤー_2" data-name="レイヤー 2"><g id="_1" data-name="1"><path class="cls-1" d="M31.29,68.92a31.58,31.58,0,0,1-9.65-1.5l-.52-.16v50.82A5.59,5.59,0,0,0,22.68,122l4.36,4.3a5.61,5.61,0,0,0,8.11,0L39.53,122a5.58,5.58,0,0,0,1.55-3.87V67.39l-.51.16A32,32,0,0,1,31.29,68.92Z"/><path class="cls-2" d="M31.27,0A31.27,31.27,0,1,0,62.53,31.27,31.31,31.31,0,0,0,31.27,0ZM21.58,31.51a9.09,9.09,0,1,1,9.09-9.09A9.1,9.1,0,0,1,21.58,31.51Z"/><rect class="cls-3" x="0.12" width="62.41" height="256"/></g></g></svg>